<?xml version="1.0" encoding="UTF-8" standalone="no"?>
<!DOCTYPE svg PUBLIC "-//W3C//DTD SVG 1.1//EN"
 "http://www.w3.org/Graphics/SVG/1.1/DTD/svg11.dtd">
<!-- Generated by graphviz version 2.40.1 (20161225.0304)
 -->
<!-- Title: calc Pages: 1 -->
<svg width="1005pt" height="189pt"
 viewBox="0.00 0.00 1004.72 189.44" xmlns="http://www.w3.org/2000/svg" xmlns:xlink="http://www.w3.org/1999/xlink">
<g id="graph0" class="graph" transform="scale(1 1) rotate(0) translate(4 185.437)">
<title>calc</title>
<polygon fill="#ffffff" stroke="transparent" points="-4,4 -4,-185.437 1000.72,-185.437 1000.72,4 -4,4"/>
<!-- y -->
<g id="node1" class="node">
<title>y</title>
<polygon fill="none" stroke="#000000" points="54,-97.437 0,-97.437 0,-61.437 54,-61.437 54,-97.437"/>
<text text-anchor="middle" x="27" y="-75.737" font-family="Times,serif" font-size="14.00" fill="#000000">yₙ</text>
</g>
<!-- k1 -->
<g id="node2" class="node">
<title>k1</title>
<polygon fill="none" stroke="#000000" points="144,-181.437 90,-181.437 90,-145.437 144,-145.437 144,-181.437"/>
<text text-anchor="middle" x="117" y="-159.737" font-family="Times,serif" font-size="14.00" fill="#000000">k₁</text>
</g>
<!-- y&#45;&gt;k1 -->
<g id="edge1" class="edge">
<title>y&#45;&gt;k1</title>
<path fill="none" stroke="#ff0000" d="M46.5287,-97.6637C59.2659,-109.5518 76.0628,-125.2289 90.0629,-138.2957"/>
<polygon fill="#ff0000" stroke="#ff0000" points="87.8107,-140.9813 97.5095,-145.2458 92.587,-135.8639 87.8107,-140.9813"/>
</g>
<!-- a1 -->
<g id="node10" class="node">
<title>a1</title>
<ellipse fill="#000000" stroke="#000000" cx="180.5" cy="-125.437" rx=".36" ry=".36"/>
</g>
<!-- y&#45;&gt;a1 -->
<g id="edge5" class="edge">
<title>y&#45;&gt;a1</title>
<path fill="none" stroke="#000000" d="M54.0894,-87.555C96.0906,-100.1416 172.8644,-123.1488 179.9696,-125.278"/>
</g>
<!-- a2 -->
<g id="node11" class="node">
<title>a2</title>
<ellipse fill="#000000" stroke="#000000" cx="428.5" cy="-87.437" rx=".36" ry=".36"/>
</g>
<!-- y&#45;&gt;a2 -->
<g id="edge8" class="edge">
<title>y&#45;&gt;a2</title>
<path fill="none" stroke="#000000" d="M54.1735,-79.437C84.8529,-79.437 136.2622,-79.437 180.5,-79.437 180.5,-79.437 180.5,-79.437 259.5,-79.437 331.1704,-79.437 419.7467,-86.7045 427.8932,-87.3859"/>
</g>
<!-- a3 -->
<g id="node12" class="node">
<title>a3</title>
<ellipse fill="#000000" stroke="#000000" cx="676.5" cy="-49.437" rx=".36" ry=".36"/>
</g>
<!-- y&#45;&gt;a3 -->
<g id="edge11" class="edge">
<title>y&#45;&gt;a3</title>
<path fill="none" stroke="#000000" d="M54.227,-68.4458C84.5284,-57.2229 135.2013,-41.437 180.5,-41.437 180.5,-41.437 180.5,-41.437 507.5,-41.437 579.1704,-41.437 667.7467,-48.7045 675.8932,-49.3859"/>
</g>
<!-- a6 -->
<g id="node13" class="node">
<title>a6</title>
<ellipse fill="#000000" stroke="#000000" cx="906.36" cy="-95.437" rx=".36" ry=".36"/>
</g>
<!-- y&#45;&gt;a6 -->
<g id="edge14" class="edge">
<title>y&#45;&gt;a6</title>
<path fill="none" stroke="#000000" d="M47.7479,-61.426C75.8382,-38.9518 128.4606,-3.437 180.5,-3.437 180.5,-3.437 180.5,-3.437 746.5,-3.437 802.0347,-3.437 825.1483,10.3109 870,-22.437 897.4441,-42.4749 905.3875,-89.1019 906.2733,-94.852"/>
</g>
<!-- k1&#45;&gt;a1 -->
<g id="edge6" class="edge">
<title>k1&#45;&gt;a1</title>
<path fill="none" stroke="#000000" d="M144.2982,-147.101C159.8954,-137.7673 176.9548,-127.5585 180.0164,-125.7264"/>
</g>
<!-- k1&#45;&gt;a6 -->
<g id="edge15" class="edge">
<title>k1&#45;&gt;a6</title>
<path fill="none" stroke="#000000" d="M144.0278,-165.8589C172.6704,-168.2135 219.2349,-171.437 259.5,-171.437 259.5,-171.437 259.5,-171.437 746.5,-171.437 804.3346,-171.437 820.4973,-160.3422 870,-130.437 887.399,-119.926 903.1244,-99.721 905.92,-96.025"/>
</g>
<!-- k2 -->
<g id="node3" class="node">
<title>k2</title>
<polygon fill="none" stroke="#000000" points="392,-143.437 338,-143.437 338,-107.437 392,-107.437 392,-143.437"/>
<text text-anchor="middle" x="365" y="-121.737" font-family="Times,serif" font-size="14.00" fill="#000000">k₂</text>
</g>
<!-- k2&#45;&gt;a2 -->
<g id="edge9" class="edge">
<title>k2&#45;&gt;a2</title>
<path fill="none" stroke="#000000" d="M392.2982,-109.101C407.8954,-99.7673 424.9548,-89.5585 428.0164,-87.7264"/>
</g>
<!-- k2&#45;&gt;a6 -->
<g id="edge16" class="edge">
<title>k2&#45;&gt;a6</title>
<path fill="none" stroke="#000000" d="M392.0278,-127.8589C420.6704,-130.2135 467.2349,-133.437 507.5,-133.437 507.5,-133.437 507.5,-133.437 746.5,-133.437 816.1054,-133.437 898.2499,-98.916 905.798,-95.6796"/>
</g>
<!-- k3 -->
<g id="node4" class="node">
<title>k3</title>
<polygon fill="none" stroke="#000000" points="640,-105.437 586,-105.437 586,-69.437 640,-69.437 640,-105.437"/>
<text text-anchor="middle" x="613" y="-83.737" font-family="Times,serif" font-size="14.00" fill="#000000">k₃</text>
</g>
<!-- k3&#45;&gt;a3 -->
<g id="edge12" class="edge">
<title>k3&#45;&gt;a3</title>
<path fill="none" stroke="#000000" d="M640.2982,-71.101C655.8954,-61.7673 672.9548,-51.5585 676.0164,-49.7264"/>
</g>
<!-- k3&#45;&gt;a6 -->
<g id="edge17" class="edge">
<title>k3&#45;&gt;a6</title>
<path fill="none" stroke="#000000" d="M640.0728,-88.1752C710.4271,-90.0938 894.3742,-95.1101 905.8022,-95.4218"/>
</g>
<!-- k4 -->
<g id="node5" class="node">
<title>k4</title>
<polygon fill="none" stroke="#000000" points="870,-67.437 816,-67.437 816,-31.437 870,-31.437 870,-67.437"/>
<text text-anchor="middle" x="843" y="-45.737" font-family="Times,serif" font-size="14.00" fill="#000000">k₄</text>
</g>
<!-- k4&#45;&gt;a6 -->
<g id="edge18" class="edge">
<title>k4&#45;&gt;a6</title>
<path fill="none" stroke="#000000" d="M868.0415,-67.6174C884.0914,-79.2698 902.5214,-92.6501 905.836,-95.0565"/>
</g>
<!-- ypk1 -->
<g id="node6" class="node">
<title>ypk1</title>
<polygon fill="none" stroke="#000000" points="302,-143.437 217,-143.437 217,-107.437 302,-107.437 302,-143.437"/>
<text text-anchor="middle" x="259.5" y="-121.737" font-family="Times,serif" font-size="14.00" fill="#000000">yₙ + ½ k₁</text>
</g>
<!-- ypk1&#45;&gt;k2 -->
<g id="edge2" class="edge">
<title>ypk1&#45;&gt;k2</title>
<path fill="none" stroke="#ff0000" d="M302.1068,-125.437C310.5509,-125.437 319.3554,-125.437 327.6101,-125.437"/>
<polygon fill="#ff0000" stroke="#ff0000" points="327.7036,-128.9371 337.7036,-125.437 327.7035,-121.9371 327.7036,-128.9371"/>
</g>
<!-- ypk2 -->
<g id="node7" class="node">
<title>ypk2</title>
<polygon fill="none" stroke="#000000" points="550,-105.437 465,-105.437 465,-69.437 550,-69.437 550,-105.437"/>
<text text-anchor="middle" x="507.5" y="-83.737" font-family="Times,serif" font-size="14.00" fill="#000000">yₙ + ½ k₂</text>
</g>
<!-- ypk2&#45;&gt;k3 -->
<g id="edge3" class="edge">
<title>ypk2&#45;&gt;k3</title>
<path fill="none" stroke="#ff0000" d="M550.1068,-87.437C558.5509,-87.437 567.3554,-87.437 575.6101,-87.437"/>
<polygon fill="#ff0000" stroke="#ff0000" points="575.7036,-90.9371 585.7036,-87.437 575.7035,-83.9371 575.7036,-90.9371"/>
</g>
<!-- ypk3 -->
<g id="node8" class="node">
<title>ypk3</title>
<polygon fill="none" stroke="#000000" points="780,-67.437 713,-67.437 713,-31.437 780,-31.437 780,-67.437"/>
<text text-anchor="middle" x="746.5" y="-45.737" font-family="Times,serif" font-size="14.00" fill="#000000">yₙ + k₃</text>
</g>
<!-- ypk3&#45;&gt;k4 -->
<g id="edge4" class="edge">
<title>ypk3&#45;&gt;k4</title>
<path fill="none" stroke="#ff0000" d="M780.251,-49.437C788.4292,-49.437 797.22,-49.437 805.557,-49.437"/>
<polygon fill="#ff0000" stroke="#ff0000" points="805.7943,-52.9371 815.7942,-49.437 805.7942,-45.9371 805.7943,-52.9371"/>
</g>
<!-- ynp1 -->
<g id="node9" class="node">
<title>ynp1</title>
<polygon fill="none" stroke="#000000" points="996.72,-113.437 942.72,-113.437 942.72,-77.437 996.72,-77.437 996.72,-113.437"/>
<text text-anchor="middle" x="969.72" y="-91.737" font-family="Times,serif" font-size="14.00" fill="#000000">yₙ₊₁</text>
</g>
<!-- a1&#45;&gt;ypk1 -->
<g id="edge7" class="edge">
<title>a1&#45;&gt;ypk1</title>
<path fill="none" stroke="#000000" d="M181.0045,-125.437C183.3686,-125.437 193.763,-125.437 206.2524,-125.437"/>
<polygon fill="#000000" stroke="#000000" points="206.6044,-128.9371 216.6044,-125.437 206.6043,-121.9371 206.6044,-128.9371"/>
</g>
<!-- a2&#45;&gt;ypk2 -->
<g id="edge10" class="edge">
<title>a2&#45;&gt;ypk2</title>
<path fill="none" stroke="#000000" d="M429.0045,-87.437C431.3686,-87.437 441.763,-87.437 454.2524,-87.437"/>
<polygon fill="#000000" stroke="#000000" points="454.6044,-90.9371 464.6044,-87.437 454.6043,-83.9371 454.6044,-90.9371"/>
</g>
<!-- a3&#45;&gt;ypk3 -->
<g id="edge13" class="edge">
<title>a3&#45;&gt;ypk3</title>
<path fill="none" stroke="#000000" d="M676.947,-49.437C679.244,-49.437 690.0957,-49.437 702.5692,-49.437"/>
<polygon fill="#000000" stroke="#000000" points="702.7879,-52.9371 712.7879,-49.437 702.7879,-45.9371 702.7879,-52.9371"/>
</g>
<!-- a6&#45;&gt;ynp1 -->
<g id="edge19" class="edge">
<title>a6&#45;&gt;ynp1</title>
<path fill="none" stroke="#000000" d="M906.7646,-95.437C908.9713,-95.437 919.9011,-95.437 932.0507,-95.437"/>
<polygon fill="#000000" stroke="#000000" points="932.3785,-98.9371 942.3784,-95.437 932.3784,-91.9371 932.3785,-98.9371"/>
</g>
</g>
</svg>
